<svg version="1.2" xmlns="http://www.w3.org/2000/svg" viewBox="0 0 56 504" width="56" height="504">
	<title>f4000b6d03a0df7153556d2514045629-navigation_10022018-svg</title>
	<style>
		.s0 { fill: none;stroke: #00a2ff;stroke-linecap: round;stroke-linejoin: round;stroke-width: 2 } 
		.s1 { fill: none;stroke: #191919;stroke-linecap: round;stroke-linejoin: round;stroke-width: 2 } 
		.s2 { fill: #ffffff } 
		.s3 { fill: #00a2ff } 
		.s4 { fill: #191919 } 
		.s5 { fill: #02b757 } 
		.s6 { fill: #f68802 } 
	</style>
	<filter id="f0">
		<feFlood flood-color="#ffffff" flood-opacity="1" />
		<feBlend mode="normal" in2="SourceGraphic"/>
		<feComposite in2="SourceAlpha" operator="in" />
	</filter>
	<g id="my_feed-on" filter="url(#f0)">
		<path id="Layer" class="s0" d="m31 480h22v20h-22z"/>
		<path id="Layer" class="s0" d="m41 485h8"/>
		<path id="Layer" class="s0" d="m41 495h8"/>
		<path id="Layer" class="s0" d="m35 484h2v2h-2z"/>
		<path id="Layer" class="s0" d="m35 494h2v2h-2z"/>
		<path id="Layer" class="s0" d="m41 490h8"/>
		<path id="Layer" class="s0" d="m35 489h2v2h-2z"/>
	</g>
	<filter id="f1">
		<feFlood flood-color="#ffffff" flood-opacity="1" />
		<feBlend mode="normal" in2="SourceGraphic"/>
		<feComposite in2="SourceAlpha" operator="in" />
	</filter>
	<g id="my_feed" filter="url(#f1)">
		<path id="Layer" class="s1" d="m3 480h22v20h-22z"/>
		<path id="Layer" class="s1" d="m13 485h8"/>
		<path id="Layer" class="s1" d="m13 495h8"/>
		<path id="Layer" class="s1" d="m7 484h2v2h-2z"/>
		<path id="Layer" class="s1" d="m7 494h2v2h-2z"/>
		<path id="Layer" class="s1" d="m13 490h8"/>
		<path id="Layer" class="s1" d="m7 489h2v2h-2z"/>
	</g>
	<filter id="f2">
		<feFlood flood-color="#ffffff" flood-opacity="1" />
		<feBlend mode="normal" in2="SourceGraphic"/>
		<feComposite in2="SourceAlpha" operator="in" />
	</filter>
	<g id="notification-on_1_" filter="url(#f2)">
		<path id="Layer" fill-rule="evenodd" class="s2" d="m54 456v12c0 3.3-2.7 6-6 6h-12c-3.3 0-6-2.7-6-6v-12c0-3.3 2.7-6 6-6h12c3.3 0 6 2.7 6 6zm-4 12c0-0.6-0.4-1-1-1h-14c-0.6 0-1 0.4-1 1 0 0.6 0.4 1 1 1h14c0.6 0 1-0.4 1-1zm0-4c0-0.6-0.4-1-1-1h-14c-0.6 0-1 0.4-1 1 0 0.6 0.4 1 1 1h14c0.6 0 1-0.4 1-1zm0-4c0-0.6-0.4-1-1-1h-14c-0.6 0-1 0.4-1 1 0 0.6 0.4 1 1 1h14c0.6 0 1-0.4 1-1zm0-4c0-0.6-0.4-1-1-1h-14c-0.6 0-1 0.4-1 1 0 0.6 0.4 1 1 1h14c0.6 0 1-0.4 1-1z"/>
	</g>
	<filter id="f3">
		<feFlood flood-color="#ffffff" flood-opacity="1" />
		<feBlend mode="normal" in2="SourceGraphic"/>
		<feComposite in2="SourceAlpha" operator="in" />
	</filter>
	<g id="notification_1_" filter="url(#f3)">
		<g id="Layer">
			<path id="Layer" fill-rule="evenodd" class="s2" d="m20 474h-12c-3.4 0-6-2.6-6-6v-12c0-3.4 2.6-6 6-6h12c3.4 0 6 2.6 6 6v12c0 3.4-2.6 6-6 6zm-12-22c-2.2 0-4 1.8-4 4v12c0 2.2 1.8 4 4 4h12c2.2 0 4-1.8 4-4v-12c0-2.2-1.8-4-4-4z"/>
		</g>
		<g id="Layer">
			<path id="Layer" class="s2" d="m21 461h-14c-0.6 0-1-0.4-1-1 0-0.6 0.4-1 1-1h14c0.6 0 1 0.4 1 1 0 0.6-0.4 1-1 1z"/>
		</g>
		<g id="Layer">
			<path id="Layer" class="s2" d="m21 465h-14c-0.6 0-1-0.4-1-1 0-0.6 0.4-1 1-1h14c0.6 0 1 0.4 1 1 0 0.6-0.4 1-1 1z"/>
		</g>
		<g id="Layer">
			<path id="Layer" class="s2" d="m21 469h-14c-0.6 0-1-0.4-1-1 0-0.6 0.4-1 1-1h14c0.6 0 1 0.4 1 1 0 0.6-0.4 1-1 1z"/>
		</g>
		<g id="Layer">
			<path id="Layer" class="s2" d="m21 457h-14c-0.6 0-1-0.4-1-1 0-0.6 0.4-1 1-1h14c0.6 0 1 0.4 1 1 0 0.6-0.4 1-1 1z"/>
		</g>
	</g>
	<path id="shop-on" fill-rule="evenodd" class="s2" d="m51 444.9c0 0.3-0.1 0.6-0.3 0.8-0.2 0.2-0.4 0.3-0.7 0.3h-16c-0.2 0-0.5-0.1-0.7-0.3-0.2-0.3-0.3-0.5-0.3-0.8l1-15c0-0.5 0.5-0.9 1-0.9h2v-2c0-2.8 2.2-5 5-5 2.8 0 5 2.2 5 5v2h2c0.5 0 1 0.4 1 0.9zm-12-15.9h6v-2c0-1.7-1.3-3-3-3-1.7 0-3 1.3-3 3zm10 15l-0.9-13h-1.1v2c0 0.6-0.4 1-1 1-0.6 0-1-0.4-1-1v-2h-6v2c0 0.6-0.4 1-1 1-0.6 0-1-0.4-1-1v-2h-1l-0.9 13z"/>
	<path id="shop" fill-rule="evenodd" class="s2" d="m23 444.9c0 0.3-0.1 0.6-0.3 0.8-0.2 0.2-0.4 0.3-0.7 0.3h-16c-0.2 0-0.5-0.1-0.7-0.3-0.2-0.3-0.3-0.5-0.3-0.8l1-15c0-0.5 0.5-0.9 1-0.9h2v-2c0-2.8 2.2-5 5-5 2.8 0 5 2.2 5 5v2h2c0.5 0 1 0.4 1 0.9zm-12-15.9h6v-2c0-1.7-1.3-3-3-3-1.7 0-3 1.3-3 3zm10 15l-0.9-13h-1.1v2c0 0.6-0.4 1-1 1-0.6 0-1-0.4-1-1v-2h-6v2c0 0.6-0.4 1-1 1-0.6 0-1-0.4-1-1v-2h-1l-0.9 13z"/>
	<filter id="f4">
		<feFlood flood-color="#ffffff" flood-opacity="1" />
		<feBlend mode="normal" in2="SourceGraphic"/>
		<feComposite in2="SourceAlpha" operator="in" />
	</filter>
	<g id="blog-on_1_" filter="url(#f4)">
		<g id="Layer">
			<path id="Layer" fill-rule="evenodd" class="s3" d="m51 388c-0.1 0-0.3 0-0.4-0.1l-13.8-5.9h-1.6l-1.8 0.9c-0.3 0.2-0.7 0.1-1 0-0.3-0.2-0.5-0.5-0.5-0.9v-7c0-0.3 0.2-0.7 0.5-0.9 0.3-0.2 0.7-0.2 1 0l1.8 0.9h1.5l13.8-6.9c0.3-0.2 0.7-0.1 1 0 0.3 0.2 0.5 0.5 0.5 0.9v18c0 0.3-0.2 0.6-0.4 0.8-0.2 0.1-0.4 0.2-0.6 0.2zm-16-8h2c0.1 0 0.3 0 0.4 0.1l12.6 5.4v-14.9l-12.6 6.3c-0.1 0.1-0.3 0.1-0.4 0.1h-2c-0.2 0-0.3 0-0.4-0.1l-0.6-0.3v3.8l0.6-0.3c0.1-0.1 0.2-0.1 0.4-0.1z"/>
		</g>
		<g id="Layer">
			<path id="Layer" class="s3" d="m42 389c-0.1 0-0.3 0-0.4-0.1l-6-3c-0.3-0.2-0.6-0.5-0.6-0.9v-3c0-0.6 0.4-1 1-1 0.6 0 1 0.4 1 1v2.4l4.6 2.3 1.6-3.1c0.2-0.5 0.8-0.7 1.3-0.4 0.5 0.2 0.7 0.8 0.4 1.3l-2 4c-0.2 0.3-0.5 0.5-0.9 0.5z"/>
		</g>
	</g>
	<filter id="f5">
		<feFlood flood-color="#ffffff" flood-opacity="1" />
		<feBlend mode="normal" in2="SourceGraphic"/>
		<feComposite in2="SourceAlpha" operator="in" />
	</filter>
	<g id="blog_3_" filter="url(#f5)">
		<g id="Layer">
			<path id="Layer" fill-rule="evenodd" class="s4" d="m23 388c-0.1 0-0.3 0-0.4-0.1l-13.8-5.9h-1.6l-1.8 0.9c-0.3 0.2-0.7 0.1-1 0-0.2-0.2-0.4-0.6-0.4-0.9v-7c0-0.3 0.2-0.7 0.5-0.9 0.3-0.2 0.7-0.2 1 0l1.8 0.9h1.5l13.8-6.9c0.3-0.2 0.7-0.1 1 0 0.3 0.2 0.5 0.5 0.5 0.9v18c0 0.3-0.2 0.6-0.4 0.8-0.3 0.1-0.5 0.2-0.7 0.2zm-16-8h2c0.1 0 0.3 0 0.4 0.1l12.6 5.4v-14.9l-12.6 6.3c-0.1 0.1-0.2 0.1-0.4 0.1h-2c-0.2 0-0.3 0-0.4-0.1l-0.6-0.3v3.8l0.6-0.3c0.1-0.1 0.2-0.1 0.4-0.1z"/>
		</g>
		<g id="Layer">
			<path id="Layer" class="s4" d="m14 389c-0.1 0-0.3 0-0.4-0.1l-6-3q-0.6-0.3-0.6-0.9v-3c0-0.6 0.4-1 1-1 0.6 0 1 0.4 1 1v2.4l4.6 2.3 1.6-3.1c0.2-0.5 0.8-0.7 1.3-0.4 0.5 0.2 0.7 0.8 0.4 1.3l-2 4c-0.2 0.3-0.5 0.5-0.9 0.5z"/>
		</g>
	</g>
	<filter id="f6">
		<feFlood flood-color="#ffffff" flood-opacity="1" />
		<feBlend mode="normal" in2="SourceGraphic"/>
		<feComposite in2="SourceAlpha" operator="in" />
	</filter>
	<g id="group-on_1_" filter="url(#f6)">
		<g id="Layer">
			<path id="Layer" fill-rule="evenodd" class="s3" d="m42 350c-2.8 0-5-2.2-5-5 0-2.8 2.2-5 5-5 2.8 0 5 2.2 5 5 0 2.8-2.2 5-5 5zm0-8c-1.7 0-3 1.3-3 3 0 1.7 1.3 3 3 3 1.7 0 3-1.3 3-3 0-1.7-1.3-3-3-3z"/>
		</g>
		<g id="Layer">
			<path id="Layer" fill-rule="evenodd" class="s3" d="m42 361c-4.2 0-6.6-2.2-6.7-2.3-0.2-0.2-0.3-0.5-0.3-0.8 0.1-1.7 0.4-4.7 1.3-5.7 0.9-1 3.9-1.2 5.7-1.3h0.1c1.7 0.1 4.7 0.4 5.7 1.3 1 0.9 1.2 3.9 1.3 5.7 0 0.3-0.1 0.6-0.3 0.8-0.2 0.1-2.6 2.3-6.8 2.3zm-5-3.5c0.7 0.5 2.4 1.5 5 1.5 2.6 0 4.3-1 5-1.5-0.1-1.8-0.4-3.5-0.7-3.9-0.3-0.2-2.4-0.6-4.3-0.7-1.9 0.1-3.9 0.4-4.3 0.7-0.2 0.4-0.5 2.2-0.7 3.9z"/>
		</g>
		<g id="Layer">
			<g id="Layer">
				<path id="Layer" class="s3" d="m36 351c-2.2 0-4-1.8-4-4 0-1.7 1.1-3.2 2.7-3.8 0.5-0.2 1.1 0.1 1.3 0.6 0.2 0.5-0.1 1.1-0.6 1.3-0.8 0.3-1.3 1-1.3 1.9 0 1.1 0.9 2 2 2 0.6 0 1 0.4 1 1 0 0.6-0.5 1-1.1 1z"/>
			</g>
			<g id="Layer">
				<path id="Layer" class="s3" d="m33 358c-0.1 0-0.1 0-0.2 0-1.3-0.3-2.3-1.1-2.4-1.2-0.3-0.2-0.4-0.6-0.3-1 0.3-1.4 0.8-3.9 1.6-4.6 0.4-0.4 3.3-2 4.2-2.2 0.5-0.1 1.1 0.3 1.2 0.8 0.1 0.5-0.3 1.1-0.8 1.2-0.5 0.1-2.8 1.3-3.2 1.7-0.2 0.2-0.6 1.5-0.9 2.9 0.3 0.2 0.7 0.4 1.1 0.5 0.5 0.1 0.9 0.6 0.8 1.2-0.2 0.4-0.6 0.7-1.1 0.7z"/>
			</g>
			<g id="Layer">
				<path id="Layer" class="s3" d="m48 351c-0.6 0-1-0.4-1-1 0-0.6 0.4-1 1-1 1.1 0 2-0.9 2-2 0-0.8-0.5-1.6-1.3-1.9-0.5-0.2-0.8-0.8-0.6-1.3 0.2-0.5 0.8-0.8 1.3-0.6 1.6 0.6 2.7 2.1 2.7 3.8-0.1 2.2-1.9 4-4.1 4z"/>
			</g>
			<g id="Layer">
				<path id="Layer" class="s3" d="m51 358c-0.5 0-0.9-0.3-1-0.8-0.1-0.5 0.2-1.1 0.8-1.2 0.4-0.1 0.8-0.3 1.1-0.5-0.3-1.4-0.7-2.7-0.9-3-0.4-0.3-2.6-1.5-3.1-1.6-0.5-0.1-0.9-0.6-0.8-1.2 0.1-0.5 0.6-0.9 1.1-0.8 0.9 0.2 3.8 1.8 4.2 2.2 0.8 0.8 1.3 3.2 1.6 4.6 0.1 0.4-0.1 0.7-0.3 1-0.1 0.1-1.1 0.9-2.4 1.2-0.2 0.1-0.2 0.1-0.3 0.1z"/>
			</g>
		</g>
	</g>
	<filter id="f7">
		<feFlood flood-color="#ffffff" flood-opacity="1" />
		<feBlend mode="normal" in2="SourceGraphic"/>
		<feComposite in2="SourceAlpha" operator="in" />
	</filter>
	<g id="group_3_" filter="url(#f7)">
		<g id="Layer">
			<path id="Layer" fill-rule="evenodd" class="s4" d="m14 350c-2.8 0-5-2.2-5-5 0-2.8 2.2-5 5-5 2.8 0 5 2.2 5 5 0 2.8-2.2 5-5 5zm0-8c-1.7 0-3 1.3-3 3 0 1.7 1.3 3 3 3 1.7 0 3-1.3 3-3 0-1.7-1.3-3-3-3z"/>
		</g>
		<g id="Layer">
			<path id="Layer" fill-rule="evenodd" class="s4" d="m14 361c-4.2 0-6.6-2.2-6.7-2.3-0.2-0.2-0.3-0.5-0.3-0.8 0.1-1.7 0.4-4.7 1.3-5.7 0.9-1 3.9-1.2 5.7-1.3h0.1c1.7 0.1 4.7 0.4 5.7 1.3 1 0.9 1.2 3.9 1.3 5.7 0 0.3-0.1 0.6-0.3 0.8-0.2 0.1-2.6 2.3-6.8 2.3zm-5-3.5c0.7 0.5 2.4 1.5 5 1.5 2.6 0 4.3-1 5-1.5-0.1-1.8-0.4-3.5-0.7-3.9-0.3-0.2-2.4-0.6-4.3-0.7-1.9 0.1-3.9 0.4-4.3 0.7-0.2 0.4-0.5 2.2-0.7 3.9z"/>
		</g>
		<g id="Layer">
			<g id="Layer">
				<path id="Layer" class="s4" d="m8 351c-2.2 0-4-1.8-4-4 0-1.7 1.1-3.2 2.7-3.8 0.5-0.2 1.1 0.1 1.3 0.6 0.2 0.5-0.1 1.1-0.6 1.3-0.8 0.3-1.3 1-1.3 1.9 0 1.1 0.9 2 2 2 0.6 0 1 0.4 1 1 0 0.6-0.5 1-1.1 1z"/>
			</g>
			<g id="Layer">
				<path id="Layer" class="s4" d="m5 358c-0.1 0-0.1 0-0.2 0-1.3-0.3-2.3-1.1-2.4-1.2-0.3-0.2-0.4-0.6-0.3-1 0.3-1.4 0.8-3.9 1.6-4.6 0.4-0.4 3.3-2 4.2-2.2 0.5-0.1 1.1 0.3 1.2 0.8 0.1 0.5-0.3 1.1-0.8 1.2-0.5 0.1-2.8 1.3-3.2 1.7-0.2 0.2-0.6 1.5-0.9 2.9 0.3 0.2 0.7 0.4 1.1 0.5 0.5 0.1 0.9 0.6 0.8 1.2-0.2 0.4-0.6 0.7-1.1 0.7z"/>
			</g>
			<g id="Layer">
				<path id="Layer" class="s4" d="m20 351c-0.6 0-1-0.4-1-1 0-0.6 0.4-1 1-1 1.1 0 2-0.9 2-2 0-0.8-0.5-1.6-1.3-1.9-0.5-0.2-0.8-0.8-0.6-1.3 0.2-0.5 0.8-0.8 1.3-0.6 1.6 0.6 2.7 2.1 2.7 3.8-0.1 2.2-1.9 4-4.1 4z"/>
			</g>
			<g id="Layer">
				<path id="Layer" class="s4" d="m23 358c-0.5 0-0.9-0.3-1-0.8-0.1-0.5 0.2-1.1 0.8-1.2 0.4-0.1 0.8-0.3 1.1-0.5-0.3-1.4-0.7-2.7-0.9-3-0.4-0.3-2.6-1.5-3.1-1.6-0.5-0.1-0.9-0.6-0.8-1.2 0.1-0.5 0.6-0.9 1.1-0.8 0.9 0.2 3.8 1.8 4.2 2.2 0.8 0.8 1.3 3.2 1.6 4.6 0.1 0.4-0.1 0.7-0.3 1-0.1 0.1-1.1 0.9-2.4 1.2-0.2 0.1-0.2 0.1-0.3 0.1z"/>
			</g>
		</g>
	</g>
	<filter id="f8">
		<feFlood flood-color="#ffffff" flood-opacity="1" />
		<feBlend mode="normal" in2="SourceGraphic"/>
		<feComposite in2="SourceAlpha" operator="in" />
	</filter>
	<g id="trade-on_1_" filter="url(#f8)">
		<g id="Layer">
			<path id="Layer" fill-rule="evenodd" class="s3" d="m34 323c-0.2 0-0.3 0-0.4-0.1-0.3-0.2-0.6-0.5-0.6-0.9v-5c0-0.3 0.1-0.6 0.4-0.8l4-3c0.2-0.1 0.4-0.2 0.6-0.2h5v-2c0-0.4 0.2-0.8 0.6-0.9 0.4-0.2 0.8-0.1 1.1 0.2l9 8c0.3 0.3 0.4 0.7 0.3 1.1-0.1 0.4-0.6 0.6-1 0.6h-14.7l-3.7 2.8c-0.2 0.1-0.4 0.2-0.6 0.2zm1-5.5v2.5l2.4-1.8c0.2-0.1 0.4-0.2 0.6-0.2h12.4l-5.4-4.8v0.8c0 0.6-0.4 1-1 1h-5.7z"/>
		</g>
		<g id="Layer">
			<path id="Layer" fill-rule="evenodd" class="s3" d="m40 334c-0.2 0-0.5-0.1-0.7-0.3l-9-8c-0.3-0.3-0.4-0.7-0.3-1.1 0.1-0.4 0.5-0.6 0.9-0.6h14.7l3.7-2.8c0.3-0.2 0.7-0.3 1-0.1 0.3 0.2 0.6 0.5 0.6 0.9v5c0 0.3-0.1 0.6-0.4 0.8l-4 3c-0.2 0.1-0.4 0.2-0.6 0.2h-5v2c0 0.4-0.2 0.8-0.6 0.9 0 0.1-0.2 0.1-0.3 0.1zm-6.4-8l5.4 4.8v-0.8c0-0.6 0.4-1 1-1h5.7l3.3-2.5v-2.5l-2.4 1.8c-0.2 0.1-0.4 0.2-0.6 0.2z"/>
		</g>
	</g>
	<filter id="f9">
		<feFlood flood-color="#ffffff" flood-opacity="1" />
		<feBlend mode="normal" in2="SourceGraphic"/>
		<feComposite in2="SourceAlpha" operator="in" />
	</filter>
	<g id="trade_3_" filter="url(#f9)">
		<g id="Layer">
			<path id="Layer" fill-rule="evenodd" class="s4" d="m6 323c-0.2 0-0.3 0-0.4-0.1q-0.6-0.3-0.6-0.9v-5c0-0.3 0.1-0.6 0.4-0.8l4-3c0.2-0.1 0.4-0.2 0.6-0.2h5v-2c0-0.4 0.2-0.8 0.6-0.9 0.4-0.2 0.8-0.1 1.1 0.2l9 8c0.3 0.3 0.4 0.7 0.3 1.1-0.1 0.4-0.6 0.6-1 0.6h-14.7l-3.7 2.8c-0.2 0.1-0.4 0.2-0.6 0.2zm1-5.5v2.5l2.4-1.8c0.2-0.1 0.4-0.2 0.6-0.2h12.4l-5.4-4.8v0.8c0 0.6-0.4 1-1 1h-5.7z"/>
		</g>
		<g id="Layer">
			<path id="Layer" fill-rule="evenodd" class="s4" d="m12 334c-0.2 0-0.5-0.1-0.7-0.3l-9-8c-0.3-0.3-0.4-0.7-0.3-1.1 0.1-0.4 0.6-0.6 1-0.6h14.7l3.7-2.8c0.3-0.2 0.7-0.3 1-0.1 0.3 0.2 0.6 0.5 0.6 0.9v5c0 0.3-0.1 0.6-0.4 0.8l-4 3c-0.2 0.1-0.4 0.2-0.6 0.2h-5v2c0 0.4-0.2 0.8-0.6 0.9-0.1 0.1-0.3 0.1-0.4 0.1zm-6.4-8l5.4 4.8v-0.8c0-0.6 0.4-1 1-1h5.7l3.3-2.5v-2.5l-2.4 1.8c-0.2 0.1-0.4 0.2-0.6 0.2z"/>
		</g>
	</g>
	<filter id="f10">
		<feFlood flood-color="#ffffff" flood-opacity="1" />
		<feBlend mode="normal" in2="SourceGraphic"/>
		<feComposite in2="SourceAlpha" operator="in" />
	</filter>
	<g id="inventory-on_1_" filter="url(#f10)">
		<g id="Layer">
			<path id="Layer" fill-rule="evenodd" class="s5" d="m50 306h-16c-0.6 0-1-0.4-1-1v-14c0-2.8 2.2-5 5-5h8c2.8 0 5 2.2 5 5v14c0 0.6-0.4 1-1 1zm-15-2h14v-13c0-1.7-1.3-3-3-3h-8c-1.7 0-3 1.3-3 3z"/>
		</g>
		<g id="Layer">
			<path id="Layer" class="s5" d="m38 299c-0.6 0-1-0.4-1-1v-2c0-0.6 0.4-1 1-1 0.6 0 1 0.4 1 1v2c0 0.6-0.4 1-1 1z"/>
		</g>
		<g id="Layer">
			<path id="Layer" class="s5" d="m46 299c-0.6 0-1-0.4-1-1v-2c0-0.6 0.4-1 1-1 0.6 0 1 0.4 1 1v2c0 0.6-0.4 1-1 1z"/>
		</g>
		<g id="Layer">
			<path id="Layer" class="s5" d="m45.5 288c-0.6 0-1-0.4-1-1v-0.5c0-1.4-1.1-2.5-2.5-2.5-1.4 0-2.5 1.1-2.5 2.5v0.5c0 0.6-0.4 1-1 1-0.6 0-1-0.4-1-1v-0.5c0-2.5 2-4.5 4.5-4.5 2.5 0 4.5 2 4.5 4.5v0.5c0 0.6-0.4 1-1 1z"/>
		</g>
		<g id="Layer">
			<path id="Layer" class="s5" d="m44.9 297h-5.8c-2.3 0-4.3-1.3-5.4-3.3l-0.6-1.2 1.8-0.9 0.6 1.2c0.7 1.4 2.1 2.2 3.6 2.2h5.8c1.5 0 2.9-0.8 3.6-2.2l0.6-1.2 1.8 0.9-0.6 1.2c-1 2-3.1 3.3-5.4 3.3z"/>
		</g>
	</g>
	<filter id="f11">
		<feFlood flood-color="#ffffff" flood-opacity="1" />
		<feBlend mode="normal" in2="SourceGraphic"/>
		<feComposite in2="SourceAlpha" operator="in" />
	</filter>
	<g id="inventory_1_" filter="url(#f11)">
		<g id="Layer">
			<path id="Layer" fill-rule="evenodd" class="s4" d="m22 306h-16c-0.6 0-1-0.4-1-1v-14c0-2.8 2.2-5 5-5h8c2.8 0 5 2.2 5 5v14c0 0.6-0.4 1-1 1zm-15-2h14v-13c0-1.7-1.3-3-3-3h-8c-1.7 0-3 1.3-3 3z"/>
		</g>
		<g id="Layer">
			<path id="Layer" class="s4" d="m10 299c-0.6 0-1-0.4-1-1v-2c0-0.6 0.4-1 1-1 0.6 0 1 0.4 1 1v2c0 0.6-0.4 1-1 1z"/>
		</g>
		<g id="Layer">
			<path id="Layer" class="s4" d="m18 299c-0.6 0-1-0.4-1-1v-2c0-0.6 0.4-1 1-1 0.6 0 1 0.4 1 1v2c0 0.6-0.4 1-1 1z"/>
		</g>
		<g id="Layer">
			<path id="Layer" class="s4" d="m17.5 288c-0.6 0-1-0.4-1-1v-0.5c0-1.4-1.1-2.5-2.5-2.5-1.4 0-2.5 1.1-2.5 2.5v0.5c0 0.6-0.4 1-1 1-0.6 0-1-0.4-1-1v-0.5c0-2.5 2-4.5 4.5-4.5 2.5 0 4.5 2 4.5 4.5v0.5c0 0.6-0.4 1-1 1z"/>
		</g>
		<g id="Layer">
			<path id="Layer" class="s4" d="m16.9 297h-5.8c-2.3 0-4.3-1.3-5.4-3.3l-0.6-1.2 1.8-0.9 0.6 1.2c0.7 1.4 2.1 2.2 3.6 2.2h5.8c1.5 0 2.9-0.8 3.6-2.2l0.6-1.2 1.8 0.9-0.6 1.2c-1 2-3.1 3.3-5.4 3.3z"/>
		</g>
	</g>
	<filter id="f12">
		<feFlood flood-color="#ffffff" flood-opacity="1" />
		<feBlend mode="normal" in2="SourceGraphic"/>
		<feComposite in2="SourceAlpha" operator="in" />
	</filter>
	<g id="character-on" filter="url(#f12)">
		<path id="Layer" fill-rule="evenodd" class="s6" d="m35 258c0-2.2 1.8-4 4-4 2.2 0 4 1.8 4 4 0 2.2-1.8 4-4 4-2.2 0-4-1.8-4-4zm2 0c0 1.1 0.9 2 2 2 1.1 0 2-0.9 2-2 0-1.1-0.9-2-2-2-1.1 0-2 0.9-2 2z"/>
		<path id="Layer" class="s6" d="m39.4 270.1c-0.5-0.2-1.1 0-1.3 0.4l-2.7 5.5h-1.2l1.7-7.8c0.1-0.5-0.2-1.1-0.7-1.2l-3.2-0.8v-1.2h10c0.6 0 1-0.4 1-1 0-0.6-0.4-1-1-1h-11c-0.6 0-1 0.4-1 1v3c0 0.5 0.3 0.9 0.8 1l3.1 0.8-1.8 8c-0.1 0.3 0 0.6 0.2 0.8 0.2 0.2 0.5 0.4 0.8 0.4h3q0.6 0 0.9-0.6l3-6c0.1-0.4-0.1-1-0.6-1.3z"/>
		<path id="Layer" fill-rule="evenodd" class="s6" d="m54 258.3l-4 12c-0.1 0.3-0.3 0.5-0.5 0.6-0.1 0.1-0.3 0.1-0.4 0.1-0.2 0-0.3-0.1-0.4-0.1l-5-2q-0.4-0.2-0.6-0.6c-0.1-0.3-0.1-0.7 0.1-0.9l7-10c0.2-0.2 0.5-0.4 0.8-0.4h2c0.3 0 0.6 0.1 0.8 0.4 0.2 0.3 0.3 0.6 0.2 0.9zm-2.3 0.8h-0.1l-6 8.5 2.8 1.1z"/>
		<path id="Layer" fill-rule="evenodd" class="s6" d="m48.1 274c0 1.5-1 4-8 4-0.4 0-0.7-0.2-0.9-0.5-0.2-0.3-0.2-0.7 0-1 0.6-1.1 0.9-2.1 1.2-3 0.4-1.6 1-3.5 3.6-3.5 1.7 0 4 1.4 4.1 4zm-2.1-0.1c0-1.5-1.5-2-2-2-1 0-1.2 0.4-1.7 2.1-0.1 0.6-0.3 1.2-0.6 1.9 2.6-0.2 4.3-0.9 4.3-2z"/>
	</g>
	<filter id="f13">
		<feFlood flood-color="#ffffff" flood-opacity="1" />
		<feBlend mode="normal" in2="SourceGraphic"/>
		<feComposite in2="SourceAlpha" operator="in" />
	</filter>
	<g id="character_1_" filter="url(#f13)">
		<path id="Layer" fill-rule="evenodd" class="s4" d="m7 258c0-2.2 1.8-4 4-4 2.2 0 4 1.8 4 4 0 2.2-1.8 4-4 4-2.2 0-4-1.8-4-4zm2 0c0 1.1 0.9 2 2 2 1.1 0 2-0.9 2-2 0-1.1-0.9-2-2-2-1.1 0-2 0.9-2 2z"/>
		<path id="Layer" class="s4" d="m11.4 270.1c-0.5-0.2-1.1 0-1.3 0.4l-2.7 5.5h-1.2l1.7-7.8c0.1-0.5-0.2-1.1-0.7-1.2l-3.2-0.8v-1.2h10c0.6 0 1-0.4 1-1 0-0.6-0.4-1-1-1h-11c-0.6 0-1 0.4-1 1v3c0 0.5 0.3 0.9 0.8 1l3.1 0.8-1.8 8c-0.1 0.3 0 0.6 0.2 0.8 0.2 0.2 0.5 0.4 0.8 0.4h3q0.6 0 0.9-0.6l3-6c0.1-0.4-0.1-1-0.6-1.3z"/>
		<path id="Layer" fill-rule="evenodd" class="s4" d="m26 258.3l-4 12c-0.1 0.3-0.3 0.5-0.5 0.6-0.1 0.1-0.3 0.1-0.4 0.1-0.2 0-0.3-0.1-0.4-0.1l-5-2q-0.4-0.2-0.6-0.6c-0.1-0.3-0.1-0.7 0.1-0.9l7-10c0.2-0.2 0.5-0.4 0.8-0.4h2c0.3 0 0.6 0.1 0.8 0.4 0.2 0.3 0.3 0.6 0.2 0.9zm-2.3 0.8h-0.1l-6 8.5 2.8 1.1z"/>
		<path id="Layer" fill-rule="evenodd" class="s4" d="m20.1 274c0 1.5-1 4-8 4-0.4 0-0.7-0.2-0.9-0.5-0.2-0.3-0.2-0.7 0-1 0.6-1.1 0.9-2.1 1.2-3 0.4-1.6 1-3.5 3.6-3.5 1.7 0 4 1.4 4.1 4zm-2.1-0.1c0-1.5-1.5-2-2-2-1 0-1.2 0.4-1.7 2.1-0.1 0.6-0.3 1.2-0.6 1.9 2.6-0.2 4.3-0.9 4.3-2z"/>
	</g>
	<filter id="f14">
		<feFlood flood-color="#ffffff" flood-opacity="1" />
		<feBlend mode="normal" in2="SourceGraphic"/>
		<feComposite in2="SourceAlpha" operator="in" />
	</filter>
	<g id="friends-on_1_" filter="url(#f14)">
		<g id="Layer">
			<path id="Layer" fill-rule="evenodd" class="s3" d="m39 238c-3.3 0-6-2.7-6-6 0-3.3 2.7-6 6-6 3.3 0 6 2.7 6 6 0 3.3-2.7 6-6 6zm0-10c-2.2 0-4 1.8-4 4 0 2.2 1.8 4 4 4 2.2 0 4-1.8 4-4 0-2.2-1.8-4-4-4z"/>
		</g>
		<g id="Layer">
			<path id="Layer" class="s3" d="m47 238.6c-0.4 0-0.8-0.2-0.9-0.6-0.2-0.5 0-1.1 0.5-1.3 1.5-0.6 2.4-2.1 2.4-3.7 0-1.9-1.3-3.5-3.2-3.9-0.5-0.1-0.9-0.6-0.8-1.2 0.1-0.5 0.6-0.9 1.2-0.8 2.8 0.6 4.8 3 4.8 5.9 0 2.4-1.4 4.5-3.6 5.5-0.1 0.1-0.3 0.1-0.4 0.1z"/>
		</g>
		<g id="Layer">
			<path id="Layer" fill-rule="evenodd" class="s3" d="m39 250c-5.2 0-8.4-2.1-8.5-2.2-0.3-0.2-0.5-0.6-0.4-1 0.2-1.2 1.1-5.4 2.3-6.5 1.2-1.2 5.1-1.3 6.7-1.3 1.6 0 5.5 0.1 6.7 1.3 1.1 1.1 2 5.3 2.3 6.5 0.1 0.4-0.1 0.8-0.4 1-0.3 0.1-3.5 2.2-8.7 2.2zm-6.9-3.5c1.1 0.5 3.5 1.5 6.9 1.5 3.4 0 5.8-1 6.9-1.5-0.5-2.1-1.2-4.3-1.6-4.8-0.4-0.4-2.9-0.7-5.3-0.7-2.4 0-4.9 0.3-5.3 0.7-0.4 0.4-1.1 2.7-1.6 4.8z"/>
		</g>
		<g id="Layer">
			<path id="Layer" class="s3" d="m50 249c-0.4 0-0.8-0.3-1-0.7-0.2-0.5 0.1-1.1 0.7-1.2 1.1-0.3 1.8-1 2.2-1.3-0.5-2.2-1.2-4.6-1.6-5-0.6-0.6-2.6-2-3.4-2.1-0.5-0.1-0.9-0.6-0.9-1.1 0.1-0.5 0.5-1 1.1-0.9 1.7 0.2 4.3 2.4 4.6 2.7 1.1 1.1 2 5.3 2.3 6.5 0.1 0.3 0 0.6-0.2 0.8-0.1 0.1-1.3 1.7-3.5 2.4-0.1-0.1-0.2-0.1-0.3-0.1z"/>
		</g>
	</g>
	<filter id="f15">
		<feFlood flood-color="#ffffff" flood-opacity="1" />
		<feBlend mode="normal" in2="SourceGraphic"/>
		<feComposite in2="SourceAlpha" operator="in" />
	</filter>
	<g id="friends_3_" filter="url(#f15)">
		<g id="Layer">
			<path id="Layer" fill-rule="evenodd" class="s4" d="m11 238c-3.3 0-6-2.7-6-6 0-3.3 2.7-6 6-6 3.3 0 6 2.7 6 6 0 3.3-2.7 6-6 6zm0-10c-2.2 0-4 1.8-4 4 0 2.2 1.8 4 4 4 2.2 0 4-1.8 4-4 0-2.2-1.8-4-4-4z"/>
		</g>
		<g id="Layer">
			<path id="Layer" class="s4" d="m19 238.6c-0.4 0-0.8-0.2-0.9-0.6-0.2-0.5 0-1.1 0.5-1.3 1.5-0.6 2.4-2.1 2.4-3.7 0-1.9-1.3-3.5-3.2-3.9-0.5-0.1-0.9-0.6-0.8-1.2 0.1-0.5 0.6-0.9 1.2-0.8 2.8 0.6 4.8 3 4.8 5.9 0 2.4-1.4 4.5-3.6 5.5-0.1 0.1-0.3 0.1-0.4 0.1z"/>
		</g>
		<g id="Layer">
			<path id="Layer" fill-rule="evenodd" class="s4" d="m11 250c-5.2 0-8.4-2.1-8.5-2.2-0.3-0.2-0.5-0.6-0.4-1 0.2-1.2 1.1-5.4 2.3-6.5 1.2-1.2 5.1-1.3 6.7-1.3 1.6 0 5.5 0.1 6.7 1.3 1.1 1.1 2 5.3 2.3 6.5 0.1 0.4-0.1 0.8-0.4 1-0.3 0.1-3.5 2.2-8.7 2.2zm-6.9-3.5c1.1 0.5 3.5 1.5 6.9 1.5 3.4 0 5.8-1 6.9-1.5-0.5-2.1-1.2-4.3-1.6-4.8-0.4-0.4-2.9-0.7-5.3-0.7-2.4 0-4.9 0.3-5.3 0.7-0.4 0.4-1.1 2.7-1.6 4.8z"/>
		</g>
		<g id="Layer">
			<path id="Layer" class="s4" d="m22 249c-0.4 0-0.8-0.3-1-0.7-0.2-0.5 0.1-1.1 0.7-1.2 1.1-0.3 1.8-1 2.2-1.3-0.5-2.2-1.2-4.6-1.6-5-0.6-0.6-2.6-2-3.4-2.1-0.5-0.1-0.9-0.6-0.9-1.1 0.1-0.5 0.5-1 1.1-0.9 1.7 0.2 4.3 2.4 4.6 2.7 1.1 1.1 2 5.3 2.3 6.5 0.1 0.3 0 0.6-0.2 0.8-0.1 0.1-1.3 1.7-3.5 2.4-0.1-0.1-0.2-0.1-0.3-0.1z"/>
		</g>
	</g>
	<filter id="f16">
		<feFlood flood-color="#ffffff" flood-opacity="1" />
		<feBlend mode="normal" in2="SourceGraphic"/>
		<feComposite in2="SourceAlpha" operator="in" />
	</filter>
	<g id="message-on_1_" filter="url(#f16)">
		<g id="Layer">
			<path id="Layer" fill-rule="evenodd" class="s3" d="m42 221c-0.3 0-0.5-0.1-0.7-0.3l-3.7-3.7h-6.6c-0.6 0-1-0.4-1-1v-16c0-0.6 0.4-1 1-1h22c0.6 0 1 0.4 1 1v16c0 0.6-0.4 1-1 1h-6.6l-3.7 3.7c-0.2 0.2-0.4 0.3-0.7 0.3zm-10-6h6c0.3 0 0.5 0.1 0.7 0.3l3.3 3.3 3.3-3.3c0.2-0.2 0.4-0.3 0.7-0.3h6v-14h-20z"/>
		</g>
		<g id="Layer">
			<path id="Layer" class="s3" d="m48 207h-12c-0.6 0-1-0.4-1-1 0-0.6 0.4-1 1-1h12c0.6 0 1 0.4 1 1 0 0.6-0.4 1-1 1z"/>
		</g>
		<g id="Layer">
			<path id="Layer" class="s3" d="m48 211h-12c-0.6 0-1-0.4-1-1 0-0.6 0.4-1 1-1h12c0.6 0 1 0.4 1 1 0 0.6-0.4 1-1 1z"/>
		</g>
	</g>
	<filter id="f17">
		<feFlood flood-color="#ffffff" flood-opacity="1" />
		<feBlend mode="normal" in2="SourceGraphic"/>
		<feComposite in2="SourceAlpha" operator="in" />
	</filter>
	<g id="message_3_" filter="url(#f17)">
		<g id="Layer">
			<path id="Layer" fill-rule="evenodd" class="s4" d="m14 221c-0.3 0-0.5-0.1-0.7-0.3l-3.7-3.7h-6.6c-0.6 0-1-0.4-1-1v-16c0-0.6 0.4-1 1-1h22c0.6 0 1 0.4 1 1v16c0 0.6-0.4 1-1 1h-6.6l-3.7 3.7c-0.2 0.2-0.4 0.3-0.7 0.3zm-10-6h6c0.3 0 0.5 0.1 0.7 0.3l3.3 3.3 3.3-3.3c0.2-0.2 0.4-0.3 0.7-0.3h6v-14h-20z"/>
		</g>
		<g id="Layer">
			<path id="Layer" class="s4" d="m20 207h-12c-0.6 0-1-0.4-1-1 0-0.6 0.4-1 1-1h12c0.6 0 1 0.4 1 1 0 0.6-0.4 1-1 1z"/>
		</g>
		<g id="Layer">
			<path id="Layer" class="s4" d="m20 211h-12c-0.6 0-1-0.4-1-1 0-0.6 0.4-1 1-1h12c0.6 0 1 0.4 1 1 0 0.6-0.4 1-1 1z"/>
		</g>
	</g>
	<filter id="f18">
		<feFlood flood-color="#ffffff" flood-opacity="1" />
		<feBlend mode="normal" in2="SourceGraphic"/>
		<feComposite in2="SourceAlpha" operator="in" />
	</filter>
	<g id="profile-on_1_" filter="url(#f18)">
		<g id="Layer">
			<path id="Layer" fill-rule="evenodd" class="s6" d="m42 182c-3.3 0-6-2.7-6-6 0-3.3 2.7-6 6-6 3.3 0 6 2.7 6 6 0 3.3-2.7 6-6 6zm0-10c-2.2 0-4 1.8-4 4 0 2.2 1.8 4 4 4 2.2 0 4-1.8 4-4 0-2.2-1.8-4-4-4z"/>
		</g>
		<g id="Layer">
			<path id="Layer" fill-rule="evenodd" class="s6" d="m42 194c-5.2 0-8.4-2.1-8.5-2.2-0.3-0.2-0.5-0.6-0.4-1 0.2-1.2 1.1-5.4 2.3-6.5 1.2-1.2 5.1-1.3 6.7-1.3 1.6 0 5.5 0.1 6.7 1.3 1.1 1.1 2 5.3 2.3 6.5 0.1 0.4-0.1 0.8-0.4 1-0.3 0.1-3.5 2.2-8.7 2.2zm-6.9-3.5c1.1 0.5 3.5 1.5 6.9 1.5 3.4 0 5.8-1 6.9-1.5-0.5-2.1-1.2-4.3-1.6-4.8-0.4-0.4-2.9-0.7-5.3-0.7-2.4 0-4.9 0.3-5.3 0.7-0.4 0.4-1.1 2.7-1.6 4.8z"/>
		</g>
	</g>
	<filter id="f19">
		<feFlood flood-color="#ffffff" flood-opacity="1" />
		<feBlend mode="normal" in2="SourceGraphic"/>
		<feComposite in2="SourceAlpha" operator="in" />
	</filter>
	<g id="profile_3_" filter="url(#f19)">
		<g id="Layer">
			<path id="Layer" fill-rule="evenodd" class="s4" d="m14 182c-3.3 0-6-2.7-6-6 0-3.3 2.7-6 6-6 3.3 0 6 2.7 6 6 0 3.3-2.7 6-6 6zm0-10c-2.2 0-4 1.8-4 4 0 2.2 1.8 4 4 4 2.2 0 4-1.8 4-4 0-2.2-1.8-4-4-4z"/>
		</g>
		<g id="Layer">
			<path id="Layer" fill-rule="evenodd" class="s4" d="m14 194c-5.2 0-8.4-2.1-8.5-2.2-0.3-0.2-0.5-0.6-0.4-1 0.2-1.2 1.1-5.4 2.3-6.5 1.2-1.2 5.1-1.3 6.7-1.3 1.6 0 5.5 0.1 6.7 1.3 1.1 1.1 2 5.3 2.3 6.5 0.1 0.4-0.1 0.8-0.4 1-0.3 0.1-3.5 2.2-8.7 2.2zm-6.9-3.5c1.1 0.5 3.5 1.5 6.9 1.5 3.4 0 5.8-1 6.9-1.5-0.5-2.1-1.2-4.3-1.6-4.8-0.4-0.4-2.9-0.7-5.3-0.7-2.4 0-4.9 0.3-5.3 0.7-0.4 0.4-1.1 2.7-1.6 4.8z"/>
		</g>
	</g>
	<filter id="f20">
		<feFlood flood-color="#ffffff" flood-opacity="1" />
		<feBlend mode="normal" in2="SourceGraphic"/>
		<feComposite in2="SourceAlpha" operator="in" />
	</filter>
	<g id="home-on_1_" filter="url(#f20)">
		<path id="Layer" fill-rule="evenodd" class="s5" d="m51 165h-7c-0.6 0-1-0.4-1-1v-6h-2v6c0 0.6-0.4 1-1 1h-7c-0.6 0-1-0.4-1-1v-9h-1c-0.4 0-0.8-0.3-0.9-0.6-0.1-0.4 0-0.8 0.3-1.1l11-10c0.4-0.3 1-0.3 1.3 0l11 10c0.3 0.3 0.4 0.7 0.3 1.1-0.1 0.4-0.5 0.6-0.9 0.6h-1v9c-0.1 0.6-0.5 1-1.1 1zm-6-2h5v-9c0-0.4 0.2-0.7 0.5-0.9l-8.5-7.8-8.5 7.8c0.3 0.2 0.5 0.5 0.5 0.9v9h5v-6c0-0.6 0.4-1 1-1h4c0.6 0 1 0.4 1 1z"/>
	</g>
	<filter id="f21">
		<feFlood flood-color="#ffffff" flood-opacity="1" />
		<feBlend mode="normal" in2="SourceGraphic"/>
		<feComposite in2="SourceAlpha" operator="in" />
	</filter>
	<g id="home_1_" filter="url(#f21)">
		<path id="Layer" fill-rule="evenodd" class="s4" d="m23 165h-7c-0.6 0-1-0.4-1-1v-6h-2v6c0 0.6-0.4 1-1 1h-7c-0.6 0-1-0.4-1-1v-9h-1c-0.4 0-0.8-0.3-0.9-0.6-0.1-0.4 0-0.8 0.3-1.1l11-10c0.4-0.3 1-0.3 1.3 0l11 10c0.3 0.3 0.4 0.7 0.3 1.1-0.1 0.4-0.5 0.6-0.9 0.6h-1v9c-0.1 0.6-0.5 1-1.1 1zm-6-2h5v-9c0-0.4 0.2-0.7 0.5-0.9l-8.5-7.8-8.5 7.8c0.3 0.2 0.5 0.5 0.5 0.9v9h5v-6c0-0.6 0.4-1 1-1h4c0.6 0 1 0.4 1 1z"/>
	</g>
	<filter id="f22">
		<feFlood flood-color="#ffffff" flood-opacity="1" />
		<feBlend mode="normal" in2="SourceGraphic"/>
		<feComposite in2="SourceAlpha" operator="in" />
	</filter>
	<g id="settings-on_1_" filter="url(#f22)">
		<path id="Layer" fill-rule="evenodd" class="s2" d="m54 97v2c0 0.6-0.4 1-1 1h-1.2c-0.3 1.3-0.8 2.5-1.5 3.5l0.9 0.9c0.4 0.4 0.4 1 0 1.4l-1.4 1.4c-0.4 0.4-1 0.4-1.4 0l-0.9-0.9c-1 0.7-2.2 1.2-3.5 1.5v1.2c0 0.6-0.4 1-1 1h-2c-0.6 0-1-0.4-1-1v-1.2c-1.3-0.3-2.5-0.8-3.5-1.5l-0.9 0.9c-0.4 0.4-1 0.4-1.4 0l-1.4-1.4c-0.4-0.4-0.4-1 0-1.4l0.9-0.9c-0.7-1-1.2-2.2-1.5-3.5h-1.2c-0.6 0-1-0.4-1-1v-2c0-0.6 0.4-1 1-1h1.2c0.3-1.3 0.8-2.5 1.5-3.5l-0.9-0.9c-0.4-0.4-0.4-1 0-1.4l1.4-1.4c0.4-0.4 1-0.4 1.4 0l0.9 0.9c1-0.7 2.2-1.2 3.5-1.5v-1.2c0-0.6 0.4-1 1-1h2c0.6 0 1 0.4 1 1v1.2c1.3 0.3 2.5 0.8 3.5 1.5l0.9-0.9c0.4-0.4 1-0.4 1.4 0l1.4 1.4c0.4 0.4 0.4 1 0 1.4l-0.9 0.9c0.7 1 1.2 2.2 1.5 3.5h1.2c0.6 0 1 0.4 1 1zm-6 1c0-3.3-2.7-6-6-6-3.3 0-6 2.7-6 6 0 3.3 2.7 6 6 6 3.3 0 6-2.7 6-6z"/>
	</g>
	<filter id="f23">
		<feFlood flood-color="#ffffff" flood-opacity="1" />
		<feBlend mode="normal" in2="SourceGraphic"/>
		<feComposite in2="SourceAlpha" operator="in" />
	</filter>
	<g id="settings_1_" filter="url(#f23)">
		<g id="Layer">
			<path id="Layer" fill-rule="evenodd" class="s2" d="m16 110h-4c-0.6 0-1-0.4-1-1v-1.5c-0.6-0.2-1.1-0.4-1.6-0.7l-0.9 0.9c-0.4 0.4-1 0.4-1.4 0l-2.9-2.7c-0.4-0.4-0.4-1 0-1.4l0.9-0.9c-0.3-0.5-0.5-1.1-0.7-1.6h-1.4c-0.6 0-1-0.4-1-1v-4c0-0.6 0.4-1 1-1h1.5c0.2-0.6 0.4-1.1 0.7-1.6l-0.9-0.9c-0.4-0.4-0.4-1 0-1.4l2.7-3c0.2-0.2 0.4-0.3 0.7-0.3 0.3 0 0.5 0.1 0.7 0.3l0.9 0.9c0.5-0.3 1.1-0.5 1.6-0.7v-1.4c0-0.6 0.4-1 1-1h4c0.6 0 1 0.4 1 1v1.5c0.6 0.2 1.1 0.4 1.6 0.7l0.9-0.9c0.4-0.4 1-0.4 1.4 0l2.8 2.8c0.4 0.4 0.4 1 0 1.4l-0.9 0.9c0.3 0.5 0.5 1.1 0.7 1.6h1.6c0.6 0 1 0.4 1 1v4c0 0.6-0.4 1-1 1h-1.5c-0.2 0.6-0.4 1.1-0.7 1.6l0.9 0.9c0.4 0.4 0.4 1 0 1.4l-2.8 2.8c-0.2 0.2-0.4 0.3-0.7 0.3-0.3 0-0.5-0.1-0.7-0.3l-0.9-0.9c-0.5 0.3-1.1 0.5-1.6 0.7v1.5c0 0.6-0.4 1-1 1zm-3-2h2v-1.2c0-0.5 0.3-0.9 0.8-1 0.9-0.2 1.7-0.5 2.5-1 0.4-0.2 0.9-0.2 1.2 0.1l0.8 0.8 1.4-1.4-0.8-0.8c-0.3-0.3-0.4-0.8-0.1-1.2 0.5-0.8 0.8-1.6 1-2.5 0.1-0.5 0.5-0.8 1-0.8h1.2v-2h-1.2c-0.5 0-0.9-0.3-1-0.8-0.2-0.9-0.5-1.7-1-2.5-0.2-0.4-0.2-0.9 0.1-1.2l0.8-0.8-1.4-1.4-0.8 0.8c-0.3 0.3-0.8 0.4-1.2 0.1-0.8-0.5-1.6-0.8-2.5-1-0.5-0.1-0.8-0.5-0.8-1v-1.2h-2v1.2c0 0.5-0.3 0.9-0.8 1-0.9 0.2-1.7 0.5-2.5 1-0.4 0.2-0.9 0.2-1.2-0.1l-0.8-0.8-1.4 1.4 0.8 0.8c0.3 0.3 0.4 0.8 0.1 1.2-0.5 0.8-0.8 1.6-1 2.5-0.1 0.5-0.5 0.8-1 0.8h-1.2v2h1.2c0.5 0 0.9 0.3 1 0.8 0.2 0.9 0.5 1.7 1 2.5 0.2 0.4 0.2 0.9-0.1 1.2l-0.8 0.8 1.4 1.4 0.8-0.8c0.3-0.3 0.8-0.4 1.2-0.1 0.8 0.5 1.6 0.8 2.5 1 0.5 0.1 0.8 0.5 0.8 1z"/>
		</g>
		<g id="Layer">
			<path id="Layer" fill-rule="evenodd" class="s2" d="m14 104c-3.3 0-6-2.7-6-6 0-3.3 2.7-6 6-6 3.3 0 6 2.7 6 6 0 3.3-2.7 6-6 6zm0-10c-2.2 0-4 1.8-4 4 0 2.2 1.8 4 4 4 2.2 0 4-1.8 4-4 0-2.2-1.8-4-4-4z"/>
		</g>
	</g>
	<filter id="f24">
		<feFlood flood-color="#ffffff" flood-opacity="1" />
		<feBlend mode="normal" in2="SourceGraphic"/>
		<feComposite in2="SourceAlpha" operator="in" />
	</filter>
	<g id="tix-on_1_" filter="url(#f24)">
		<path id="Layer" fill-rule="evenodd" class="s2" d="m54 68l-14 14-3-3v-2l-2-2h-2l-3-3 14-14 3 3v2l2 2h2zm-9.3 3.3l-3.3-3.3 1.3-1.3c0.4-0.4 0.4-1 0-1.4-0.4-0.4-1-0.4-1.4 0l-4 4c-0.4 0.4-0.4 1 0 1.4 0.2 0.2 0.4 0.3 0.7 0.3 0.3 0 0.5-0.1 0.7-0.3l1.3-1.3 3.3 3.3c0.2 0.2 0.4 0.3 0.7 0.3 0.3 0 0.5-0.1 0.7-0.3 0.4-0.4 0.4-1 0-1.4z"/>
	</g>
	<filter id="f25">
		<feFlood flood-color="#ffffff" flood-opacity="1" />
		<feBlend mode="normal" in2="SourceGraphic"/>
		<feComposite in2="SourceAlpha" operator="in" />
	</filter>
	<g id="tix_2_" filter="url(#f25)">
		<g id="Layer">
			<path id="Layer" fill-rule="evenodd" class="s2" d="m12 82c-0.3 0-0.5-0.1-0.7-0.3l-3-3c-0.2-0.2-0.3-0.4-0.3-0.7v-1.6l-0.4-0.4h-1.6c-0.3 0-0.5-0.1-0.7-0.3l-3-3c-0.4-0.4-0.4-1 0-1.4l13-13c0.4-0.4 1-0.4 1.4 0l3 3c0.2 0.2 0.3 0.4 0.3 0.7v1.6l0.4 0.4h1.6c0.3 0 0.5 0.1 0.7 0.3l3 3c0.4 0.4 0.4 1 0 1.4l-13 13c-0.2 0.2-0.4 0.3-0.7 0.3zm-2-4.4l2 2 11.6-11.6-2-2h-1.6c-0.3 0-0.5-0.1-0.7-0.3l-1-1c-0.2-0.2-0.3-0.4-0.3-0.7v-1.6l-2-2-11.6 11.6 2 2h1.6c0.3 0 0.5 0.1 0.7 0.3l1 1c0.2 0.2 0.3 0.4 0.3 0.7z"/>
		</g>
		<g id="Layer">
			<path id="Layer" class="s2" d="m10 71c-0.3 0-0.5-0.1-0.7-0.3-0.4-0.4-0.4-1 0-1.4l4-4c0.4-0.4 1-0.4 1.4 0 0.4 0.4 0.4 1 0 1.4l-4 4c-0.2 0.2-0.4 0.3-0.7 0.3z"/>
		</g>
		<g id="Layer">
			<path id="Layer" class="s2" d="m16 73c-0.3 0-0.5-0.1-0.7-0.3l-4-4c-0.4-0.4-0.4-1 0-1.4 0.4-0.4 1-0.4 1.4 0l4 4c0.4 0.4 0.4 1 0 1.4-0.2 0.2-0.4 0.3-0.7 0.3z"/>
		</g>
	</g>
	<filter id="f26">
		<feFlood flood-color="#ffffff" flood-opacity="1" />
		<feBlend mode="normal" in2="SourceGraphic"/>
		<feComposite in2="SourceAlpha" operator="in" />
	</filter>
	<g id="robux-on_1_" filter="url(#f26)">
		<path id="Layer" class="s2" d="m37 39v2h2.6c0.1-0.5 0.1-1.5 0-2z"/>
		<path id="Layer" fill-rule="evenodd" class="s2" d="m54 42c0 6.6-5.4 12-12 12-6.6 0-12-5.4-12-12 0-6.6 5.4-12 12-12 6.6 0 12 5.4 12 12zm-4.5 2c0-1.7-1.1-3-2.5-3h-2c-0.3 0-0.5-0.6-0.5-1 0-0.3 0.1-0.6 0.2-0.8 0.1-0.2 0.2-0.2 0.3-0.2h3c0.6 0 1-0.4 1-1 0-0.6-0.4-1-1-1h-1v-1c0-0.6-0.4-1-1-1-0.6 0-1 0.4-1 1v1c-0.8 0-1.5 0.4-2 1.1-0.3 0.5-0.5 1.2-0.5 1.9 0 1.7 1.1 3 2.5 3h2c0.4 0 0.5 0.6 0.5 1 0 0.5-0.2 1-0.5 1h-4.6l-2.5-2h0.1c0.3 0 1.1-0.1 1.5-1.3 0.1-0.5 0.2-1.1 0.2-1.7 0-1.9-0.6-3-1.7-3h-4c-0.6 0-1 0.4-1 1v8c0 0.6 0.4 1 1 1 0.6 0 1-0.4 1-1v-2.7l4.4 3.5c0.2 0.1 0.4 0.2 0.6 0.2h3v1c0 0.6 0.4 1 1 1 0.6 0 1-0.4 1-1v-1c1.4 0 2.5-1.3 2.5-3z"/>
	</g>
	<filter id="f27">
		<feFlood flood-color="#ffffff" flood-opacity="1" />
		<feBlend mode="normal" in2="SourceGraphic"/>
		<feComposite in2="SourceAlpha" operator="in" />
	</filter>
	<g id="robux_2_" filter="url(#f27)">
		<g id="Layer">
			<path id="Layer" fill-rule="evenodd" class="s2" d="m14 54c-6.6 0-12-5.4-12-12 0-6.6 5.4-12 12-12 6.6 0 12 5.4 12 12 0 6.6-5.4 12-12 12zm0-22c-5.5 0-10 4.5-10 10 0 5.5 4.5 10 10 10 5.5 0 10-4.5 10-10 0-5.5-4.5-10-10-10z"/>
		</g>
		<g id="Layer">
			<g id="Layer">
				<path id="Layer" fill-rule="evenodd" class="s2" d="m19 47h-5c-0.2 0-0.4-0.1-0.6-0.2l-4.4-3.5v2.7c0 0.6-0.4 1-1 1-0.6 0-1-0.4-1-1v-8c0-0.6 0.4-1 1-1h4c1.1 0 1.7 1.1 1.7 3 0 0.6-0.1 1.2-0.2 1.7-0.4 1.2-1.2 1.3-1.5 1.3h-0.1l2.5 2h4.6c0.3 0 0.5-0.5 0.5-1 0-0.4-0.1-1-0.5-1h-2c-1.4 0-2.5-1.3-2.5-3 0-0.7 0.2-1.4 0.5-1.9 0.5-0.7 1.2-1.1 2-1.1h3c0.6 0 1 0.4 1 1 0 0.6-0.4 1-1 1h-3c-0.1 0-0.2 0-0.3 0.2-0.1 0.2-0.2 0.5-0.2 0.8 0 0.4 0.2 1 0.5 1h2c1.4 0 2.5 1.3 2.5 3 0 1.7-1.1 3-2.5 3zm-10-6h2.6c0.1-0.5 0.1-1.5 0-2h-2.6z"/>
			</g>
			<g id="Layer">
				<path id="Layer" class="s2" d="m18 38c-0.6 0-1-0.4-1-1v-1c0-0.6 0.4-1 1-1 0.6 0 1 0.4 1 1v1c0 0.6-0.4 1-1 1z"/>
			</g>
			<g id="Layer">
				<path id="Layer" class="s2" d="m18 49c-0.6 0-1-0.4-1-1v-1c0-0.6 0.4-1 1-1 0.6 0 1 0.4 1 1v1c0 0.6-0.4 1-1 1z"/>
			</g>
		</g>
	</g>
	<filter id="f28">
		<feFlood flood-color="#ffffff" flood-opacity="1" />
		<feBlend mode="normal" in2="SourceGraphic"/>
		<feComposite in2="SourceAlpha" operator="in" />
	</filter>
	<g id="menu-on_1_" filter="url(#f28)">
		<g id="Layer">
			<path id="Layer" class="s2" d="m50 10h-16c-0.6 0-1-0.4-1-1 0-0.6 0.4-1 1-1h16c0.6 0 1 0.4 1 1 0 0.6-0.4 1-1 1z"/>
		</g>
		<g id="Layer">
			<path id="Layer" class="s2" d="m50 15h-16c-0.6 0-1-0.4-1-1 0-0.6 0.4-1 1-1h16c0.6 0 1 0.4 1 1 0 0.6-0.4 1-1 1z"/>
		</g>
		<g id="Layer">
			<path id="Layer" class="s2" d="m50 20h-16c-0.6 0-1-0.4-1-1 0-0.6 0.4-1 1-1h16c0.6 0 1 0.4 1 1 0 0.6-0.4 1-1 1z"/>
		</g>
	</g>
	<filter id="f29">
		<feFlood flood-color="#ffffff" flood-opacity="1" />
		<feBlend mode="normal" in2="SourceGraphic"/>
		<feComposite in2="SourceAlpha" operator="in" />
	</filter>
	<g id="menu_2_" filter="url(#f29)">
		<g id="Layer">
			<path id="Layer" class="s2" d="m22 10h-16c-0.6 0-1-0.4-1-1 0-0.6 0.4-1 1-1h16c0.6 0 1 0.4 1 1 0 0.6-0.4 1-1 1z"/>
		</g>
		<g id="Layer">
			<path id="Layer" class="s2" d="m22 15h-16c-0.6 0-1-0.4-1-1 0-0.6 0.4-1 1-1h16c0.6 0 1 0.4 1 1 0 0.6-0.4 1-1 1z"/>
		</g>
		<g id="Layer">
			<path id="Layer" class="s2" d="m22 20h-16c-0.6 0-1-0.4-1-1 0-0.6 0.4-1 1-1h16c0.6 0 1 0.4 1 1 0 0.6-0.4 1-1 1z"/>
		</g>
	</g>
	<filter id="f30">
		<feFlood flood-color="#ffffff" flood-opacity="1" />
		<feBlend mode="normal" in2="SourceGraphic"/>
		<feComposite in2="SourceAlpha" operator="in" />
	</filter>
	<g id="search_1_" filter="url(#f30)">
		<g id="Layer">
			<path id="Layer" fill-rule="evenodd" class="s4" d="m12 133c-5 0-9-4-9-9 0-5 4-9 9-9 5 0 9 4 9 9 0 5-4 9-9 9zm0-16c-3.9 0-7 3.1-7 7 0 3.9 3.1 7 7 7 3.9 0 7-3.1 7-7 0-3.9-3.1-7-7-7z"/>
		</g>
		<g id="Layer">
			<path id="Layer" class="s4" d="m24 137c-0.3 0-0.5-0.1-0.7-0.3l-6-6c-0.4-0.4-0.4-1 0-1.4 0.4-0.4 1-0.4 1.4 0l6 6c0.4 0.4 0.4 1 0 1.4-0.2 0.2-0.4 0.3-0.7 0.3z"/>
		</g>
		<g id="Layer">
			<path id="Layer" class="s4" d="m16 125c-0.6 0-1-0.4-1-1 0-1.7-1.3-3-3-3-0.6 0-1-0.4-1-1 0-0.6 0.4-1 1-1 2.8 0 5 2.2 5 5 0 0.6-0.4 1-1 1z"/>
		</g>
	</g>
	<filter id="f31">
		<feFlood flood-color="#ffffff" flood-opacity="1" />
		<feBlend mode="normal" in2="SourceGraphic"/>
		<feComposite in2="SourceAlpha" operator="in" />
	</filter>
	<g id="search_2_" filter="url(#f31)">
		<g id="Layer">
			<path id="Layer" fill-rule="evenodd" class="s3" d="m40 133c-5 0-9-4-9-9 0-5 4-9 9-9 5 0 9 4 9 9 0 5-4 9-9 9zm0-16c-3.9 0-7 3.1-7 7 0 3.9 3.1 7 7 7 3.9 0 7-3.1 7-7 0-3.9-3.1-7-7-7z"/>
		</g>
		<g id="Layer">
			<path id="Layer" class="s3" d="m52 137c-0.3 0-0.5-0.1-0.7-0.3l-6-6c-0.4-0.4-0.4-1 0-1.4 0.4-0.4 1-0.4 1.4 0l6 6c0.4 0.4 0.4 1 0 1.4-0.2 0.2-0.4 0.3-0.7 0.3z"/>
		</g>
		<g id="Layer">
			<path id="Layer" class="s3" d="m44 125c-0.6 0-1-0.4-1-1 0-1.7-1.3-3-3-3-0.6 0-1-0.4-1-1 0-0.6 0.4-1 1-1 2.8 0 5 2.2 5 5 0 0.6-0.4 1-1 1z"/>
		</g>
	</g>
	<filter id="f32">
		<feFlood flood-color="#ffffff" flood-opacity="1" />
		<feBlend mode="normal" in2="SourceGraphic"/>
		<feComposite in2="SourceAlpha" operator="in" />
	</filter>
	<g id="search_4_" filter="url(#f32)">
		<g id="Layer">
			<path id="Layer" fill-rule="evenodd" class="s2" d="m12 413c-5 0-9-4-9-9 0-5 4-9 9-9 5 0 9 4 9 9 0 5-4 9-9 9zm0-16c-3.9 0-7 3.1-7 7 0 3.9 3.1 7 7 7 3.9 0 7-3.1 7-7 0-3.9-3.1-7-7-7z"/>
		</g>
		<g id="Layer">
			<path id="Layer" class="s2" d="m24 417c-0.3 0-0.5-0.1-0.7-0.3l-6-6c-0.4-0.4-0.4-1 0-1.4 0.4-0.4 1-0.4 1.4 0l6 6c0.4 0.4 0.4 1 0 1.4-0.2 0.2-0.4 0.3-0.7 0.3z"/>
		</g>
		<g id="Layer">
			<path id="Layer" class="s2" d="m16 405c-0.6 0-1-0.4-1-1 0-1.7-1.3-3-3-3-0.6 0-1-0.4-1-1 0-0.6 0.4-1 1-1 2.8 0 5 2.2 5 5 0 0.6-0.4 1-1 1z"/>
		</g>
	</g>
	<filter id="f33">
		<feFlood flood-color="#ffffff" flood-opacity="1" />
		<feBlend mode="normal" in2="SourceGraphic"/>
		<feComposite in2="SourceAlpha" operator="in" />
	</filter>
	<g id="search_3_" filter="url(#f33)">
		<g id="Layer">
			<path id="Layer" fill-rule="evenodd" class="s3" d="m40 413c-5 0-9-4-9-9 0-5 4-9 9-9 5 0 9 4 9 9 0 5-4 9-9 9zm0-16c-3.9 0-7 3.1-7 7 0 3.9 3.1 7 7 7 3.9 0 7-3.1 7-7 0-3.9-3.1-7-7-7z"/>
		</g>
		<g id="Layer">
			<path id="Layer" class="s3" d="m52 417c-0.3 0-0.5-0.1-0.7-0.3l-6-6c-0.4-0.4-0.4-1 0-1.4 0.4-0.4 1-0.4 1.4 0l6 6c0.4 0.4 0.4 1 0 1.4-0.2 0.2-0.4 0.3-0.7 0.3z"/>
		</g>
		<g id="Layer">
			<path id="Layer" class="s3" d="m44 405c-0.6 0-1-0.4-1-1 0-1.7-1.3-3-3-3-0.6 0-1-0.4-1-1 0-0.6 0.4-1 1-1 2.8 0 5 2.2 5 5 0 0.6-0.4 1-1 1z"/>
		</g>
	</g>
</svg>